<svg xmlns="http://www.w3.org/2000/svg" width="58.438" height="58.438" viewBox="0 0 58.438 58.438">
  <g id="Out_line" data-name="Out line" transform="translate(-16 -16)">
    <path id="Path_77" data-name="Path 77" d="M325.427,84.662V72.974a.974.974,0,0,0-.974-.974h-3.9a.974.974,0,0,0-.974.974V84.662h-.974V75.9a.974.974,0,0,0-.974-.974h-3.9a.974.974,0,0,0-.974.974v8.766h-.974V78.818a.974.974,0,0,0-.974-.974h-3.9a.974.974,0,0,0-.974.974v5.844H304v1.948h23.375V84.662Zm-3.9-10.714h1.948V84.662h-1.948Zm-6.818,2.922h1.948v7.792h-1.948ZM307.9,79.792h1.948v4.87H307.9Z" transform="translate(-252.937 -49.182)" fill="#24344b"/>
    <path id="Path_78" data-name="Path 78" d="M108.8,225.531H65.948V208.974H64V230.4a2.925,2.925,0,0,0,2.922,2.922H83.479v2.922a.975.975,0,0,1-.974.974,2.922,2.922,0,1,0,0,5.844h9.74a2.922,2.922,0,1,0,0-5.844.975.975,0,0,1-.974-.974v-2.922h16.557a2.925,2.925,0,0,0,2.922-2.922V208H108.8ZM92.245,239.167a.974.974,0,1,1,0,1.948h-9.74a.974.974,0,1,1,0-1.948,2.925,2.925,0,0,0,2.922-2.922v-2.922h3.9v2.922A2.925,2.925,0,0,0,92.245,239.167Zm15.583-7.792H66.922a.975.975,0,0,1-.974-.974v-2.922H108.8V230.4a.975.975,0,0,1-.974.974Z" transform="translate(-42.156 -168.625)" fill="#24344b"/>
    <rect id="Rectangle_40" data-name="Rectangle 40" width="15.695" height="2.242" transform="translate(34.825 31.088)" fill="#282d6a"/>
    <ellipse id="Ellipse_7" data-name="Ellipse 7" cx="1.495" cy="1.121" rx="1.495" ry="1.121" transform="translate(43.794 59.49)" fill="#282d6a"/>
    <path id="Path_79" data-name="Path 79" d="M115.9,251.688V249.74h.974a.974.974,0,0,0,.974-.974v-5.844a.974.974,0,0,0-.974-.974H115.9V240h-1.948v1.948h-.974a.974.974,0,0,0-.974.974v5.844a.974.974,0,0,0,.974.974h.974v1.948Zm-1.948-7.792H115.9v3.9h-1.948Z" transform="translate(-84.312 -196.729)" fill="#25bbed"/>
    <path id="Path_80" data-name="Path 80" d="M195.9,203.688V201.74h.974a.974.974,0,0,0,.974-.974v-5.844a.974.974,0,0,0-.974-.974H195.9V192h-1.948v1.948h-.974a.974.974,0,0,0-.974.974v5.844a.974.974,0,0,0,.974.974h.974v1.948Zm-1.948-7.792H195.9v3.9h-1.948Z" transform="translate(-154.573 -154.573)" fill="#25bbed"/>
    <path id="Path_81" data-name="Path 81" d="M273.948,224v1.948h-.974a.974.974,0,0,0-.974.974v5.844a.974.974,0,0,0,.974.974h.974v1.948H275.9V233.74h.974a.974.974,0,0,0,.974-.974v-5.844a.974.974,0,0,0-.974-.974H275.9V224Zm1.948,7.792h-1.948v-3.9H275.9Z" transform="translate(-224.833 -182.677)" fill="#25bbed"/>
    <path id="Path_82" data-name="Path 82" d="M353.948,200v1.948h-.974a.974.974,0,0,0-.974.974v5.844a.974.974,0,0,0,.974.974h.974v1.948H355.9V209.74h.974a.974.974,0,0,0,.974-.974v-5.844a.974.974,0,0,0-.974-.974H355.9V200Zm1.948,7.792h-1.948v-3.9H355.9Z" transform="translate(-295.094 -161.599)" fill="#25bbed"/>
    <path id="Path_83" data-name="Path 83" d="M33.531,64.766a8.744,8.744,0,0,0-1.175-4.385.974.974,0,0,0-1.329-.355L25.74,63.079v-6.1A.974.974,0,0,0,24.766,56a8.766,8.766,0,1,0,8.766,8.766ZM31.1,62.235a6.821,6.821,0,0,1-5.358,9.278V65.328Zm-7.306-4.217v5.774H18.018a6.833,6.833,0,0,1,5.774-5.774ZM18.019,65.74h5.773v5.773A6.832,6.832,0,0,1,18.019,65.74Z" transform="translate(0 -35.13)" fill="#24344b"/>
    <path id="Path_84" data-name="Path 84" d="M104.487,25.609a.974.974,0,0,0,.974,0l6.748-3.9a.974.974,0,0,0,.487-.844h0a.974.974,0,0,0-.131-.488A8.8,8.8,0,0,0,104.974,16a.974.974,0,0,0-.974.974v7.792a.974.974,0,0,0,.487.843Zm1.461-7.591a6.855,6.855,0,0,1,4.383,2.53l-4.383,2.53Z" transform="translate(-77.286)" fill="#24344b"/>
  </g>
</svg>
