<svg id="app-store" xmlns="http://www.w3.org/2000/svg" width="27.7" height="27.7" viewBox="0 0 27.7 27.7">
  <g id="Group_143" data-name="Group 143">
    <g id="Group_142" data-name="Group 142">
      <path id="Path_126" data-name="Path 126" d="M22.019,0H5.681A5.687,5.687,0,0,0,0,5.681V22.019A5.687,5.687,0,0,0,5.681,27.7H22.019A5.687,5.687,0,0,0,27.7,22.019V5.681A5.687,5.687,0,0,0,22.019,0Zm4.058,22.019a4.062,4.062,0,0,1-4.058,4.058H5.681a4.062,4.062,0,0,1-4.058-4.058V5.681A4.062,4.062,0,0,1,5.681,1.623H22.019a4.062,4.062,0,0,1,4.058,4.058Z" fill="#24344b"/>
    </g>
  </g>
  <g id="Group_145" data-name="Group 145" transform="translate(4.626 5.681)">
    <g id="Group_144" data-name="Group 144">
      <path id="Path_127" data-name="Path 127" d="M97.41,106.009a1.353,1.353,0,0,0-2.478-.326l-.208.361-.208-.361a1.354,1.354,0,0,0-1.848-.5h0a1.354,1.354,0,0,0-.5,1.848l.989,1.713-3.649,6.321H86.853a1.353,1.353,0,0,0,0,2.705H97.124l-1.562-2.705H92.637l4.638-8.034A1.344,1.344,0,0,0,97.41,106.009Z" transform="translate(-85.5 -105.006)" fill="#24344b"/>
    </g>
  </g>
  <g id="Group_147" data-name="Group 147" transform="translate(14.475 10.505)">
    <g id="Group_146" data-name="Group 146">
      <path id="Path_128" data-name="Path 128" d="M274.795,199.4h-2.661l-3.025-5.239-1.562,2.705,4.7,8.134a1.344,1.344,0,0,0,.821.63,1.361,1.361,0,0,0,.352.047,1.353,1.353,0,0,0,1.169-2.029l-.891-1.543h1.1a1.353,1.353,0,0,0,0-2.705Z" transform="translate(-267.548 -194.166)" fill="#24344b"/>
    </g>
  </g>
  <g id="Group_149" data-name="Group 149" transform="translate(6.005 19.531)">
    <g id="Group_148" data-name="Group 148">
      <path id="Path_129" data-name="Path 129" d="M111.45,361l-.266.461a1.353,1.353,0,0,0,2.343,1.353L114.573,361Z" transform="translate(-111.003 -361)" fill="#24344b"/>
    </g>
  </g>
</svg>
