<svg xmlns="http://www.w3.org/2000/svg" width="24.361" height="27" viewBox="0 0 24.361 27">
  <path id="play-store" d="M33.861,10.923,15.436.391A2.968,2.968,0,0,0,11,2.968V24.032a2.968,2.968,0,0,0,4.441,2.577L33.861,16.077a2.968,2.968,0,0,0,0-5.154Zm-7.984-2.49-2.53,3.524L17.3,3.528ZM13.847,25.19a1.158,1.158,0,0,1-.47-.148,1.172,1.172,0,0,1-.582-1.01V2.968a1.163,1.163,0,0,1,1.05-1.16L22.239,13.5ZM17.3,23.472l6.051-8.429,2.53,3.524Zm15.672-8.958-5.52,3.155L24.455,13.5l2.993-4.169,5.52,3.155a1.168,1.168,0,0,1,0,2.028Z" transform="translate(-10.995)" fill="#24344b"/>
</svg>
