<svg xmlns="http://www.w3.org/2000/svg" width="59.347" height="59.33" viewBox="0 0 59.347 59.33">
  <g id="project-management" transform="translate(0 -0.067)">
    <g id="Group_99" data-name="Group 99" transform="translate(0 0.312)">
      <g id="Group_98" data-name="Group 98" transform="translate(0)">
        <path id="Path_92" data-name="Path 92" d="M58.5,17.388h0l0,0-3.831-.547a.985.985,0,0,1-.452-1.763l3.1-2.322a.985.985,0,0,0,.2-1.379L53.965,6.649a.985.985,0,0,0-1.379-.2l-3.1,2.322a.985.985,0,0,1-1.57-.927l.548-3.831A.985.985,0,0,0,47.634,2.9h0l-5.845-.835a.985.985,0,0,0-1.115.835h0l-.548,3.831a.985.985,0,0,1-1.763.452l-2.321-3.1a.985.985,0,0,0-1.379-.2L31.7,6.112a19.053,19.053,0,0,0-4.028,0,18.71,18.71,0,0,0-16.5,16.777c-.027.279-.036.555-.05.832h-.3a.985.985,0,0,0-.963.788l-.68,3.236-2.726-1.88a.985.985,0,0,0-1.256.114L2.254,28.934a.985.985,0,0,0-.114,1.255l1.871,2.721-3.237.68A.985.985,0,0,0,0,34.554v3.939a.985.985,0,0,0,.782.964l3.237.68L2.148,42.858a.985.985,0,0,0,.114,1.255l2.954,2.954a.985.985,0,0,0,1.256.114l2.721-1.876.68,3.237a.985.985,0,0,0,.963.788h3.939a.985.985,0,0,0,.964-.782l.68-3.237,2.721,1.871a.985.985,0,0,0,1.255-.114l1.529-1.534V48.34a3.926,3.926,0,0,0,1.969,3.391V57.2a3.939,3.939,0,0,0,3.939,3.939h3.939A3.939,3.939,0,0,0,35.711,57.2V51.732A3.926,3.926,0,0,0,37.68,48.34v-3.9a4.825,4.825,0,0,1,2.278-4.02,18.9,18.9,0,0,0,2.318-1.773l-1.314-1.467a16.764,16.764,0,0,1-2.075,1.586,6.783,6.783,0,0,0-3.177,5.673v3.9a1.969,1.969,0,0,1-1.969,1.969H25.863a1.969,1.969,0,0,1-1.969-1.969V44.361A6.625,6.625,0,0,0,20.77,38.8,16.69,16.69,0,0,1,29.591,7.98a1.071,1.071,0,0,0-.038.107.985.985,0,0,0,.188.73l2.321,3.1a.964.964,0,0,1,.059,1.093.979.979,0,0,1-.985.474l-3.831-.548a.985.985,0,0,0-1.115.835h0l-.836,5.848a.985.985,0,0,0,.835,1.115h0l3.831.548a.985.985,0,0,1,.452,1.763l-3.1,2.321a.985.985,0,0,0-.2,1.379l3.545,4.727a.985.985,0,0,0,1.379.2l3.1-2.321a.985.985,0,0,1,1.565.927L36.219,34.1a.985.985,0,0,0,.835,1.115h0l5.849.836a1.092,1.092,0,0,0,.139.009.985.985,0,0,0,.976-.845l.547-3.831a.985.985,0,0,1,1.763-.452l2.322,3.1a.985.985,0,0,0,1.379.2l4.727-3.545a.985.985,0,0,0,.2-1.379l-2.321-3.1a.968.968,0,0,1-.059-1.093.956.956,0,0,1,.985-.473l3.831.547a.985.985,0,0,0,1.115-.835h0l.835-5.849A.985.985,0,0,0,58.5,17.388ZM25.863,52.279h7.878v1.969H25.863Zm0,3.939h7.878V57.2a1.969,1.969,0,0,1-1.969,1.969H27.833A1.969,1.969,0,0,1,25.863,57.2Zm-7.84-16.982a18.613,18.613,0,0,0,1.683,1.226,4.807,4.807,0,0,1,1.984,2.52L19.579,45.09l-2.045-1.41A1.969,1.969,0,0,0,14.489,44.9l-.516,2.459H11.632L11.116,44.9a1.97,1.97,0,0,0-3.045-1.216L6.025,45.09,4.23,43.3,5.64,41.256A1.97,1.97,0,0,0,4.424,38.21l-2.455-.517v-2.34l2.455-.517A1.97,1.97,0,0,0,5.641,31.8l-1.41-2.05,1.794-1.79,2.047,1.41a1.969,1.969,0,0,0,3.044-1.217l.172-.819a18.753,18.753,0,0,0,.781,3.339,5.908,5.908,0,1,0,5.955,8.567Zm-1.529-1.388A3.933,3.933,0,1,1,12.8,32.584h.037A18.65,18.65,0,0,0,16.494,37.849ZM56.686,23.1l-2.856-.408a2.954,2.954,0,0,0-2.781,4.7l1.73,2.307-3.151,2.363L47.9,29.749A2.954,2.954,0,0,0,42.609,31.1l-.4,2.86-3.9-.557.408-2.856a2.954,2.954,0,0,0-4.7-2.782L31.715,29.5l-2.363-3.151,2.306-1.731A2.954,2.954,0,0,0,30.3,19.328l-2.856-.408.557-3.9,2.856.408a2.954,2.954,0,0,0,2.782-4.7L31.907,8.422l3.151-2.363,1.731,2.307a2.954,2.954,0,0,0,5.288-1.354l.408-2.856,3.9.556-.408,2.856a2.954,2.954,0,0,0,4.7,2.781l2.307-1.73,2.363,3.151L53.036,13.5A2.954,2.954,0,0,0,54.39,18.79l2.856.408Z" transform="translate(0 -2.057)" fill="#24344b"/>
      </g>
    </g>
    <g id="Group_101" data-name="Group 101" transform="translate(34.466 9.435)">
      <g id="Group_100" data-name="Group 100">
        <path id="Path_93" data-name="Path 93" d="M287.878,76.171a7.878,7.878,0,1,0,7.878,7.878A7.878,7.878,0,0,0,287.878,76.171Zm0,13.786a5.908,5.908,0,1,1,5.908-5.908A5.908,5.908,0,0,1,287.878,89.957Z" transform="translate(-280 -76.171)" fill="#1b3071"/>
      </g>
    </g>
    <g id="Group_103" data-name="Group 103" transform="translate(28.818 43.641)">
      <g id="Group_102" data-name="Group 102">
        <rect id="Rectangle_41" data-name="Rectangle 41" width="1.969" height="2.954" fill="#1b3071"/>
      </g>
    </g>
    <g id="Group_105" data-name="Group 105" transform="translate(16.008 11.296)">
      <g id="Group_104" data-name="Group 104">
        <path id="Path_94" data-name="Path 94" d="M139.532,113.965a11.817,11.817,0,0,1-2-21.008l-1.053-1.666a13.786,13.786,0,0,0,2.333,24.506,6.287,6.287,0,0,1,4.037,5.869h1.969A8.239,8.239,0,0,0,139.532,113.965Z" transform="translate(-130.044 -91.291)" fill="#1b3071"/>
      </g>
    </g>
    <g id="Group_107" data-name="Group 107" transform="translate(48.513 36.748)">
      <g id="Group_106" data-name="Group 106">
        <rect id="Rectangle_42" data-name="Rectangle 42" width="6.893" height="1.969" fill="#25bbed"/>
      </g>
    </g>
    <g id="Group_109" data-name="Group 109" transform="translate(46.898 41.899)">
      <g id="Group_108" data-name="Group 108" transform="translate(0 0)">
        <rect id="Rectangle_43" data-name="Rectangle 43" width="1.969" height="7.691" transform="matrix(0.64, -0.768, 0.768, 0.64, 0, 1.513)" fill="#25bbed"/>
      </g>
    </g>
    <g id="Group_111" data-name="Group 111" transform="translate(42.604 44.626)">
      <g id="Group_110" data-name="Group 110">
        <rect id="Rectangle_44" data-name="Rectangle 44" width="1.969" height="6.893" fill="#25bbed"/>
      </g>
    </g>
    <g id="Group_113" data-name="Group 113" transform="translate(1.006 15.112)">
      <g id="Group_112" data-name="Group 112" transform="translate(0 0)">
        <rect id="Rectangle_45" data-name="Rectangle 45" width="8.12" height="1.969" transform="translate(0 1.969) rotate(-14.035)" fill="#25bbed"/>
      </g>
    </g>
    <g id="Group_115" data-name="Group 115" transform="translate(2.641 5.42)">
      <g id="Group_114" data-name="Group 114" transform="translate(0 0)">
        <rect id="Rectangle_46" data-name="Rectangle 46" width="1.969" height="8.471" transform="matrix(0.581, -0.814, 0.814, 0.581, 0, 1.602)" fill="#25bbed"/>
      </g>
    </g>
    <g id="Group_117" data-name="Group 117" transform="translate(11.079 0.067)">
      <g id="Group_116" data-name="Group 116" transform="translate(0 0)">
        <rect id="Rectangle_47" data-name="Rectangle 47" width="1.969" height="8.131" transform="matrix(0.969, -0.248, 0.248, 0.969, 0, 0.488)" fill="#25bbed"/>
      </g>
    </g>
  </g>
</svg>
