<svg id="risks" xmlns="http://www.w3.org/2000/svg" width="58.609" height="59" viewBox="0 0 58.609 59">
  <path id="Path_85" data-name="Path 85" d="M21.451,43.461l-1.794.595a12.13,12.13,0,0,0,.714,1.708l1.684-.858a10.443,10.443,0,0,1-.6-1.444Z" transform="translate(-2.021 -2.931)" fill="#1b3071"/>
  <path id="Path_86" data-name="Path 86" d="M40.088,33.857A10.4,10.4,0,0,1,22.974,45.672l-1.534,1.1A12.29,12.29,0,0,0,41.663,32.811Z" transform="translate(-2.118 -2.349)" fill="#1b3071"/>
  <path id="Path_87" data-name="Path 87" d="M56.773,15a2.839,2.839,0,0,0-2.836,2.836,2.808,2.808,0,0,0,.419,1.462L49.22,25.575a2.81,2.81,0,0,0-.955-.177,2.889,2.889,0,0,0-.406.041l-5.444-5.444L37.392,23.9a2.8,2.8,0,0,0-1.416-.393c-.074,0-.143.016-.216.022l-.011,0-.829-6.634H25.688l-.827,6.623q-.7.254-1.393.583l-5.274-4.1-6.527,6.527,4.1,5.274c-.026.055-.043.11-.069.164L6.66,28.345c0-.037.011-.111.011-.111S5.4,25.4,3.836,25.4a2.836,2.836,0,1,0,2.118,4.7l8.08,3.232-5.472.684v9.232l6.623.828q.254.7.583,1.392l-4.1,5.274,6.527,6.527,5.274-4.1q.693.329,1.393.583l.827,6.623H34.92l.827-6.623q.7-.254,1.393-.583l5.274,4.1,6.527-6.527-4.1-5.274q.329-.693.583-1.392l6.623-.828V34.017l-6.623-.828q-.254-.7-.583-1.392l1.313-1.688a2.822,2.822,0,0,0,4.529-3.336l5.136-6.278a2.788,2.788,0,0,0,.955.178,2.836,2.836,0,0,0,0-5.672ZM3.836,29.18a.945.945,0,1,1,.945-.945A.946.946,0,0,1,3.836,29.18Zm42.3-2.793a2.846,2.846,0,0,0-.352.51l-7.022-1.08a2.768,2.768,0,0,0-.139-.475l3.638-2.829Zm-9.21-.043a.945.945,0,1,1-.945-.945A.946.946,0,0,1,36.921,26.344Zm-22.738.336,4.168-4.168,4.9,3.813.537-.279a14.032,14.032,0,0,1,2.22-.927l.577-.182.77-6.155h5.893l.7,5.585a2.82,2.82,0,0,0,.05,4l-1.012,2.194a8.476,8.476,0,0,0-10.228,4.153l-1.915-.736c0-.026.008-.049.008-.075a2.839,2.839,0,0,0-2.836-2.836,2.9,2.9,0,0,0-.387.039Zm9.673,10.486,3.62,1.392c0,.026-.008.049-.008.075a2.836,2.836,0,1,0,4.813-2.027L33.9,33.088a6.624,6.624,0,1,1-10.048,4.077Zm6.448.522a.945.945,0,1,1-.945.945A.946.946,0,0,1,30.3,37.687Zm.256-1.865c-.086-.008-.168-.026-.256-.026a2.817,2.817,0,0,0-2.143,1L24.535,35.4a6.6,6.6,0,0,1,7.654-3.109ZM18.015,32.961a.945.945,0,1,1-.945.945A.946.946,0,0,1,18.015,32.961Zm24.875-.84a13.921,13.921,0,0,1,.927,2.219l.182.578,6.156.769v5.893L44,42.348l-.182.578a14.173,14.173,0,0,1-.927,2.219l-.279.538,3.813,4.9-4.168,4.168-4.9-3.813-.537.279a14.032,14.032,0,0,1-2.22.927l-.577.182-.77,6.156H27.358l-.769-6.155-.577-.182a14.033,14.033,0,0,1-2.22-.927l-.537-.279-4.9,3.813-4.168-4.168L18,45.683l-.279-.538a13.92,13.92,0,0,1-.927-2.219l-.182-.578-6.156-.769V35.686l4.98-.622a2.814,2.814,0,0,0,4.726.679l1.925.74A8.5,8.5,0,1,0,34.7,31.362l1.019-2.209a2.555,2.555,0,0,0,.256.026,2.825,2.825,0,0,0,2.484-1.5l6.416.988-2.265,2.912Zm5.375-2.941a.945.945,0,1,1,.945-.945A.946.946,0,0,1,48.265,29.18Zm8.508-10.4a.945.945,0,1,1,.945-.945A.946.946,0,0,1,56.773,18.781Z" transform="translate(-1 -1.374)" fill="#24344b"/>
  <path id="Path_88" data-name="Path 88" d="M24.275,10.453H20.1V1H18.212V12.344h1.5l-5.28,5.28-5.28-5.28h1.5V4.781H8.759v5.672H4.586L14.43,20.3Z" transform="translate(-1.196 -0.609)" fill="#25bbed"/>
  <path id="Path_89" data-name="Path 89" d="M9,1h1.891V2.891H9Z" transform="translate(-1.438 -0.609)" fill="#1b3071"/>
  <path id="Path_90" data-name="Path 90" d="M42.759,17.993h1.891V8.54h-1.5l5.28-5.28,5.28,5.28h-1.5v5.672H54.1V10.43h4.173L48.43.586,38.586,10.43h4.173Z" transform="translate(-3.056 -0.586)" fill="#25bbed"/>
  <path id="Path_91" data-name="Path 91" d="M53,17h1.891v1.891H53Z" transform="translate(-3.844 -1.484)" fill="#1b3071"/>
</svg>
